<?xml version="1.0" ?><svg id="Layer_1" style="enable-background:new 0 0 256 256;" version="1.1" viewBox="0 0 256 256" xml:space="preserve" xmlns="http://www.w3.org/2000/svg" xmlns:xlink="http://www.w3.org/1999/xlink"><g><path d="M160.5,176.2c1.2-8.8-1.2-17.7-6.5-24.3c-4.2-5.1-10.3-8.1-16.7-8.1h-0.1c-6.4,0-12.4,2.9-16.6,7.9   c-9.5,11.4-10.5,26.4-2.5,39.1c3.1,5,8.1,8.4,13.9,9.5c1.4,0.3,2.8,0.4,4.2,0.4c4.3,0,8.5-1.3,12.1-3.9   C154.9,192.3,159.3,184.7,160.5,176.2z M142.6,188.8c-2.5,1.8-5.6,2.4-8.6,1.8c-3.1-0.6-5.7-2.4-7.4-5.1c-5.6-8.9-5-19.4,1.7-27.4   c2.3-2.8,5.5-4.3,8.9-4.3h0c3.4,0,6.7,1.6,9,4.5c3.6,4.5,5.2,10.5,4.4,16.6C149.8,180.6,146.9,185.7,142.6,188.8z"/><path d="M231.9,201.1c-6.6-7.2-17.9-8.7-26.2-3.6c-7.1,4.3-11.9,12-13.2,21c-1.4,9.4,1.1,18.5,6.9,25.1c4.5,5.2,10.4,7.8,16.3,7.8   c4.1,0,8.3-1.3,12-3.9c6.9-4.9,11.4-12.8,12.3-21.7C240.9,216.6,238,207.6,231.9,201.1z M230,224.8c-0.6,6.1-3.6,11.4-8.1,14.6   c0,0,0,0,0,0c-4.9,3.5-10.8,2.5-15-2.3c-3.9-4.4-5.5-10.6-4.5-17.1c0.9-6.1,4.1-11.2,8.6-14c1.7-1.1,3.7-1.6,5.7-1.6   c3,0,5.8,1.3,8,3.6C228.7,212.3,230.7,218.4,230,224.8z"/><path d="M210.2,144.5c-2.3-1.5-5.4-0.8-6.9,1.5l-62.2,97.9c-1.5,2.3-0.8,5.4,1.5,6.9c0.8,0.5,1.8,0.8,2.7,0.8   c1.6,0,3.3-0.8,4.2-2.3l62.2-97.9C213.2,149,212.5,145.9,210.2,144.5z"/><path d="M64.9,62.7c16.1,0,29.1-13.1,29.1-29.1S81,4.4,64.9,4.4c-16.1,0-29.1,13.1-29.1,29.1S48.8,62.7,64.9,62.7z M64.9,14.4   c10.6,0,19.2,8.6,19.2,19.2s-8.6,19.2-19.2,19.2c-10.6,0-19.2-8.6-19.2-19.2S54.4,14.4,64.9,14.4z"/><path d="M100.1,102.4c-2.7-0.2-5.1,1.9-5.3,4.6l-4.5,65.5c0,0.2-0.1,0.4-0.1,0.5L86,236.6c-0.2,2.8-2.5,4.9-5.2,4.9H49.1   c-2.8,0-5.1-2.2-5.3-4.9L39.7,173c-0.1-2.1-1.5-3.8-3.5-4.4c-6-1.8-6-1.8-6.5-8.5l-3.8-67.5l0-0.6c7.3-2.2,14.6-4.5,22-6.9   c3.2,3.8,6.5,7.6,10,11.5l3.3,3.7c0.9,1.1,2.3,1.7,3.7,1.7c0,0,0,0,0,0c1.4,0,2.8-0.6,3.7-1.7l4-4.5c3.2-3.6,6.2-7.1,9.2-10.6   c0.1,0,0.2,0,0.4,0l49,11.1c0.7,0.2,1.4,0.2,2.1,0l44.1-9c2.7-0.6,4.4-3.2,3.9-5.9c-0.6-2.7-3.2-4.5-5.9-3.9l-43,8.8L84,75.2   c-0.2,0-0.4-0.1-0.7-0.1c-0.9-0.1-5.8-0.3-8.6,3c-3.1,3.7-6.2,7.2-9.5,11l-0.2,0.3c-3.4-3.8-6.6-7.5-9.8-11.2   c-2.6-3.1-6-4.1-9.7-2.8c-7.5,2.4-15,4.8-22.5,7.1c-4.5,1.4-7,4.8-7,9.4c0,0.4,0,1.2,0,1.2l3.7,66.6l0.1,1.1   c0.7,10.1,2.4,13.3,10.2,16.2l4,60.3c0.5,8,7.2,14.3,15.2,14.3h31.7c8,0,14.7-6.3,15.2-14.3l4.1-63.2c0-0.2,0-0.3,0.1-0.5l4.5-66   C104.9,104.9,102.8,102.5,100.1,102.4z"/></g></svg>